<?xml version="1.0" standalone="no"?>
<!DOCTYPE svg PUBLIC "-//W3C//DTD SVG 20010904//EN"
 "http://www.w3.org/TR/2001/REC-SVG-20010904/DTD/svg10.dtd">
<svg version="1.0" xmlns="http://www.w3.org/2000/svg"
 width="512.000000pt" height="512.000000pt" viewBox="0 0 512.000000 512.000000"
 preserveAspectRatio="xMidYMid meet">
<metadata>
Created by potrace 1.14, written by Peter Selinger 2001-2017
</metadata>
<g transform="translate(0.000000,512.000000) scale(0.100000,-0.100000)"
fill="#000000" stroke="none">
<path d="M2410 4945 c-307 -63 -536 -276 -623 -580 -16 -56 -21 -110 -24 -268
l-5 -199 -48 -63 c-127 -168 -217 -381 -255 -603 l-13 -77 -2 135 c-1 74 -3
143 -5 152 -2 9 -6 36 -9 60 -30 211 -181 427 -385 548 -150 89 -258 110 -555
107 -247 -2 -250 -3 -300 -71 -20 -26 -21 -41 -21 -264 0 -244 4 -291 31 -377
15 -49 62 -151 86 -190 116 -184 320 -322 533 -361 55 -11 69 -11 242 -13
l151 -1 38 -53 c53 -72 116 -199 143 -282 38 -124 49 -219 50 -445 2 -220 7
-366 16 -410 2 -13 7 -42 10 -65 20 -138 83 -332 157 -480 261 -521 736 -870
1313 -966 39 -6 142 -13 230 -14 370 -7 686 83 995 283 273 176 481 416 631
727 57 117 121 307 134 396 4 24 11 67 17 94 6 28 12 129 13 225 4 303 -50
552 -177 805 -112 223 -219 361 -432 560 -31 29 -178 136 -231 167 -163 97
-344 173 -502 208 l-52 12 5 56 c2 32 7 77 9 102 3 25 7 74 10 110 3 36 8 87
11 114 13 126 -5 136 -244 136 -157 0 -183 -2 -201 -17 -12 -10 -119 -234
-242 -503 -122 -267 -305 -667 -407 -890 -112 -245 -185 -417 -185 -435 1 -19
10 -37 27 -52 27 -23 30 -23 303 -23 l275 0 -6 -67 c-4 -38 -8 -88 -11 -113
-6 -64 -14 -154 -21 -235 -3 -38 -7 -81 -9 -95 -2 -14 -7 -65 -11 -115 -3 -49
-8 -97 -9 -106 -2 -8 -6 -60 -10 -115 -4 -54 -9 -106 -10 -115 -2 -8 -6 -55
-10 -105 -4 -49 -9 -91 -10 -94 -2 -3 -6 -55 -10 -117 -7 -111 -7 -112 19
-138 25 -25 26 -25 205 -25 120 0 189 4 207 12 18 8 36 33 56 78 26 56 70 152
191 420 14 30 37 82 52 115 112 246 135 296 158 345 14 30 56 125 95 210 38
85 81 180 95 210 188 410 198 435 192 467 -11 59 -31 63 -331 63 l-266 0 6 83
c4 45 9 102 12 127 9 82 13 124 20 205 4 44 8 91 9 105 2 14 3 37 4 53 1 25 4
27 29 21 121 -28 328 -119 440 -196 344 -233 561 -578 626 -993 14 -86 16
-391 3 -411 -3 -5 -8 -27 -11 -49 -12 -73 -38 -169 -69 -250 -32 -85 -109
-239 -133 -266 -8 -8 -14 -19 -14 -23 0 -29 -212 -260 -310 -337 -194 -154
-430 -255 -689 -294 -98 -15 -358 -13 -438 4 -178 36 -324 87 -453 158 -394
217 -674 620 -737 1064 -5 30 -8 371 -8 759 l0 705 27 97 c31 111 98 257 158
341 l42 57 146 1 c81 0 167 2 191 5 48 5 154 30 186 43 11 5 38 17 60 26 166
73 343 257 405 422 51 137 55 164 55 430 0 239 -1 253 -21 279 -51 68 -52 69
-307 70 -159 1 -253 -2 -297 -11z"/>
</g>
</svg>
